<svg xmlns="http://www.w3.org/2000/svg" data-name="Layer 1" viewBox="0 0 512 640" x="0px" y="0px"><path d="M314.282,434.255a6,6,0,0,1-6,6H205.332a6,6,0,0,1,0-12h102.95A6,6,0,0,1,314.282,434.255Zm-20.2,24.872H219.532a6,6,0,1,0,0,12h74.551a6,6,0,0,0,0-12ZM276.348,490H237.266a6,6,0,1,0,0,12h39.082a6,6,0,0,0,0-12ZM257.87,67.965a6,6,0,0,0,6-6V16a6,6,0,0,0-12,0V61.965A6,6,0,0,0,257.87,67.965ZM362.685,94.246a6,6,0,0,0,8.2-2.2l17.146-29.7a6,6,0,1,0-10.393-6l-17.145,29.7A6,6,0,0,0,362.685,94.246ZM481.8,141.084a6,6,0,0,0-8.2-2.2l-38.676,22.33a6,6,0,1,0,6,10.392L479.6,149.28A6,6,0,0,0,481.8,141.084ZM152.891,92.05a6,6,0,0,0,10.393-6L147.453,58.63a6,6,0,0,0-10.393,6ZM78.255,172.415a6,6,0,0,0,3.005-11.2L38.4,136.471a6,6,0,1,0-6,10.392L75.26,171.61A5.98,5.98,0,0,0,78.255,172.415Zm345.261,19.319a6,6,0,0,1,1.234,4.489L421.023,224.7a6,6,0,0,1-5.941,5.223,6.178,6.178,0,0,1-.787-.052,6,6,0,0,1-5.17-6.727l1.837-14.039-27.191,21.188c.067,1.7.111,3.4.111,5.111,0,41.522-13.092,57.952-25.753,73.84-14.072,17.659-28.623,35.92-28.623,92.91a6,6,0,0,1-6,6H194.458a6,6,0,0,1-6-6c0-56.132-15.291-73.15-30.08-89.607-2.714-3.021-5.445-6.064-8.088-9.329L69.333,361.08a6,6,0,1,1-6.979-9.762L143.3,293.459c-7.793-12.581-13.569-29.557-13.569-58.06A127.22,127.22,0,0,1,256.807,108.323c63.519,0,116.3,46.846,125.616,107.8l20.93-16.309-11.617-1.251a6,6,0,0,1,1.284-11.931l26.423,2.844A6,6,0,0,1,423.516,191.734ZM153.072,286.475l58.174-41.581a25.754,25.754,0,0,1,33.656,3.029l32.965,33.953a13.888,13.888,0,0,0,18.529,1.283l74.987-58.431A115.073,115.073,0,0,0,141.732,235.4C141.732,260.675,146.312,275.332,153.072,286.475ZM371.83,239.593l-68.058,53.031a25.869,25.869,0,0,1-34.515-2.389l-32.964-33.953a13.831,13.831,0,0,0-18.069-1.627L160.07,296.223c2.31,2.815,4.74,5.523,7.234,8.3,15.017,16.712,31.969,35.578,33.1,91.628H317.561c1.051-56.58,17.03-76.627,31.183-94.387C360.682,286.78,371.049,273.752,371.83,239.593Z"/><text x="0" y="527" fill="#000000" font-size="5px" font-weight="bold" font-family="'Helvetica Neue', Helvetica, Arial-Unicode, Arial, Sans-serif">Created by Andi wiyanto</text><text x="0" y="532" fill="#000000" font-size="5px" font-weight="bold" font-family="'Helvetica Neue', Helvetica, Arial-Unicode, Arial, Sans-serif">from the Noun Project</text></svg>